<mxfile host="app.diagrams.net" agent="Mozilla/5.0 (Windows NT 10.0; Win64; x64) AppleWebKit/537.36 (KHTML, like Gecko) Chrome/139.0.0.0 Safari/537.36" version="28.1.2">
  <diagram name="Page-1" id="cbl7YRNlGnvLN5kAvx_t">
    <mxGraphModel dx="1874" dy="544" grid="1" gridSize="10" guides="1" tooltips="1" connect="1" arrows="1" fold="1" page="1" pageScale="1" pageWidth="850" pageHeight="1100" math="0" shadow="0">
      <root>
        <mxCell id="0" />
        <mxCell id="1" parent="0" />
        <mxCell id="3ym9XBCRjFFnZ731LeBo-1" value="Admin Management" style="swimlane;childLayout=stackLayout;horizontal=1;startSize=50;horizontalStack=0;rounded=1;fontSize=14;fontStyle=0;strokeWidth=2;resizeParent=0;resizeLast=1;shadow=0;dashed=0;align=center;arcSize=4;whiteSpace=wrap;html=1;fillColor=#e6d0de;gradientColor=#d5739d;strokeColor=#996185;" vertex="1" parent="1">
          <mxGeometry x="60" y="90" width="160" height="100" as="geometry" />
        </mxCell>
        <mxCell id="3ym9XBCRjFFnZ731LeBo-2" value="+User Administration&lt;br&gt;+Platform Management&lt;div&gt;&lt;br/&gt;&lt;/div&gt;" style="align=left;strokeColor=none;fillColor=none;spacingLeft=4;spacingRight=4;fontSize=12;verticalAlign=top;resizable=0;rotatable=0;part=1;html=1;whiteSpace=wrap;" vertex="1" parent="3ym9XBCRjFFnZ731LeBo-1">
          <mxGeometry y="50" width="160" height="50" as="geometry" />
        </mxCell>
        <mxCell id="3ym9XBCRjFFnZ731LeBo-3" value="&lt;font style=&quot;font-size: 15px;&quot;&gt;&lt;b&gt;Airbnb Clone Backend&lt;/b&gt;&lt;/font&gt;" style="rounded=1;arcSize=10;whiteSpace=wrap;html=1;align=center;fillColor=#e1d5e7;strokeColor=#9673a6;" vertex="1" parent="1">
          <mxGeometry x="310" y="290" width="140" height="120" as="geometry" />
        </mxCell>
        <mxCell id="3ym9XBCRjFFnZ731LeBo-4" value="&lt;b&gt;User Management&lt;/b&gt;" style="swimlane;childLayout=stackLayout;horizontal=1;startSize=50;horizontalStack=0;rounded=1;fontSize=14;fontStyle=0;strokeWidth=2;resizeParent=0;resizeLast=1;shadow=0;dashed=0;align=center;arcSize=4;whiteSpace=wrap;html=1;fillColor=#60a917;fontColor=#ffffff;strokeColor=#2D7600;" vertex="1" parent="1">
          <mxGeometry x="290" y="40" width="160" height="130" as="geometry" />
        </mxCell>
        <mxCell id="3ym9XBCRjFFnZ731LeBo-5" value="+User Registration&lt;div&gt;+Authentication&amp;nbsp; +Authorization&lt;/div&gt;&lt;div&gt;+Profile Management&lt;/div&gt;&lt;div&gt;+Role Management&lt;/div&gt;" style="align=left;strokeColor=none;fillColor=none;spacingLeft=4;spacingRight=4;fontSize=12;verticalAlign=top;resizable=0;rotatable=0;part=1;html=1;whiteSpace=wrap;" vertex="1" parent="3ym9XBCRjFFnZ731LeBo-4">
          <mxGeometry y="50" width="160" height="80" as="geometry" />
        </mxCell>
        <mxCell id="3ym9XBCRjFFnZ731LeBo-6" value="&lt;b&gt;Search and Filtering System&lt;/b&gt;" style="swimlane;childLayout=stackLayout;horizontal=1;startSize=50;horizontalStack=0;rounded=1;fontSize=14;fontStyle=0;strokeWidth=2;resizeParent=0;resizeLast=1;shadow=0;dashed=0;align=center;arcSize=4;whiteSpace=wrap;html=1;fillColor=#e51400;fontColor=#ffffff;strokeColor=#B20000;" vertex="1" parent="1">
          <mxGeometry x="10" y="470" width="160" height="100" as="geometry" />
        </mxCell>
        <mxCell id="3ym9XBCRjFFnZ731LeBo-7" value="+Search Functionality&lt;br&gt;+Search Optimization" style="align=left;strokeColor=none;fillColor=none;spacingLeft=4;spacingRight=4;fontSize=12;verticalAlign=top;resizable=0;rotatable=0;part=1;html=1;whiteSpace=wrap;" vertex="1" parent="3ym9XBCRjFFnZ731LeBo-6">
          <mxGeometry y="50" width="160" height="50" as="geometry" />
        </mxCell>
        <mxCell id="3ym9XBCRjFFnZ731LeBo-23" style="rounded=0;orthogonalLoop=1;jettySize=auto;html=1;entryX=1;entryY=0;entryDx=0;entryDy=0;shape=link;" edge="1" parent="1" source="3ym9XBCRjFFnZ731LeBo-8" target="3ym9XBCRjFFnZ731LeBo-3">
          <mxGeometry relative="1" as="geometry" />
        </mxCell>
        <mxCell id="3ym9XBCRjFFnZ731LeBo-8" value="&lt;b&gt;Property Management&lt;/b&gt;" style="swimlane;childLayout=stackLayout;horizontal=1;startSize=50;horizontalStack=0;rounded=1;fontSize=14;fontStyle=0;strokeWidth=2;resizeParent=0;resizeLast=1;shadow=0;dashed=0;align=center;arcSize=4;whiteSpace=wrap;html=1;fillColor=#1ba1e2;fontColor=#ffffff;strokeColor=#006EAF;" vertex="1" parent="1">
          <mxGeometry x="570" y="90" width="160" height="120" as="geometry" />
        </mxCell>
        <mxCell id="3ym9XBCRjFFnZ731LeBo-9" value="+Property Listing Creation&lt;br&gt;+Property Management&lt;br&gt;+Location Services" style="align=left;strokeColor=none;fillColor=none;spacingLeft=4;spacingRight=4;fontSize=12;verticalAlign=top;resizable=0;rotatable=0;part=1;html=1;whiteSpace=wrap;" vertex="1" parent="3ym9XBCRjFFnZ731LeBo-8">
          <mxGeometry y="50" width="160" height="70" as="geometry" />
        </mxCell>
        <mxCell id="3ym9XBCRjFFnZ731LeBo-24" style="rounded=0;orthogonalLoop=1;jettySize=auto;html=1;shape=link;" edge="1" parent="1" source="3ym9XBCRjFFnZ731LeBo-10" target="3ym9XBCRjFFnZ731LeBo-3">
          <mxGeometry relative="1" as="geometry" />
        </mxCell>
        <mxCell id="3ym9XBCRjFFnZ731LeBo-10" value="&lt;b&gt;Booking Management&lt;/b&gt;" style="swimlane;childLayout=stackLayout;horizontal=1;startSize=50;horizontalStack=0;rounded=1;fontSize=14;fontStyle=0;strokeWidth=2;resizeParent=0;resizeLast=1;shadow=0;dashed=0;align=center;arcSize=4;whiteSpace=wrap;html=1;fillColor=light-dark(#008a00, #ee5867);fontColor=#ffffff;strokeColor=#005700;" vertex="1" parent="1">
          <mxGeometry x="650" y="260" width="160" height="120" as="geometry" />
        </mxCell>
        <mxCell id="3ym9XBCRjFFnZ731LeBo-11" value="+Booking Creation&lt;br&gt;+Booking Management&lt;br&gt;+Calendar Integration" style="align=left;strokeColor=none;fillColor=none;spacingLeft=4;spacingRight=4;fontSize=12;verticalAlign=top;resizable=0;rotatable=0;part=1;html=1;whiteSpace=wrap;" vertex="1" parent="3ym9XBCRjFFnZ731LeBo-10">
          <mxGeometry y="50" width="160" height="70" as="geometry" />
        </mxCell>
        <mxCell id="3ym9XBCRjFFnZ731LeBo-12" value="&lt;b&gt;Communication System&lt;/b&gt;" style="swimlane;childLayout=stackLayout;horizontal=1;startSize=50;horizontalStack=0;rounded=1;fontSize=14;fontStyle=0;strokeWidth=2;resizeParent=0;resizeLast=1;shadow=0;dashed=0;align=center;arcSize=4;whiteSpace=wrap;html=1;fillColor=#ffcd28;gradientColor=#ffa500;strokeColor=#d79b00;" vertex="1" parent="1">
          <mxGeometry x="-60" y="260" width="160" height="120" as="geometry" />
        </mxCell>
        <mxCell id="3ym9XBCRjFFnZ731LeBo-13" value="+Messaging Platform&lt;br&gt;+Notification Management&lt;div&gt;&lt;br/&gt;&lt;/div&gt;" style="align=left;strokeColor=none;fillColor=none;spacingLeft=4;spacingRight=4;fontSize=12;verticalAlign=top;resizable=0;rotatable=0;part=1;html=1;whiteSpace=wrap;" vertex="1" parent="3ym9XBCRjFFnZ731LeBo-12">
          <mxGeometry y="50" width="160" height="70" as="geometry" />
        </mxCell>
        <mxCell id="3ym9XBCRjFFnZ731LeBo-14" value="&lt;b&gt;Payment Processing&lt;/b&gt;" style="swimlane;childLayout=stackLayout;horizontal=1;startSize=50;horizontalStack=0;rounded=1;fontSize=14;fontStyle=0;strokeWidth=2;resizeParent=0;resizeLast=1;shadow=0;dashed=0;align=center;arcSize=4;whiteSpace=wrap;html=1;fillColor=#fa6800;fontColor=#000000;strokeColor=#C73500;" vertex="1" parent="1">
          <mxGeometry x="590" y="470" width="190" height="120" as="geometry" />
        </mxCell>
        <mxCell id="3ym9XBCRjFFnZ731LeBo-15" value="+Payment Gateway Integration&lt;br&gt;+Financial Management&lt;br&gt;+Financial Tracking" style="align=left;strokeColor=none;fillColor=none;spacingLeft=4;spacingRight=4;fontSize=12;verticalAlign=top;resizable=0;rotatable=0;part=1;html=1;whiteSpace=wrap;" vertex="1" parent="3ym9XBCRjFFnZ731LeBo-14">
          <mxGeometry y="50" width="190" height="70" as="geometry" />
        </mxCell>
        <mxCell id="3ym9XBCRjFFnZ731LeBo-26" style="rounded=0;orthogonalLoop=1;jettySize=auto;html=1;entryX=0.5;entryY=1;entryDx=0;entryDy=0;shape=link;" edge="1" parent="1" source="3ym9XBCRjFFnZ731LeBo-16" target="3ym9XBCRjFFnZ731LeBo-3">
          <mxGeometry relative="1" as="geometry" />
        </mxCell>
        <mxCell id="3ym9XBCRjFFnZ731LeBo-16" value="&lt;b&gt;Review and Rating&lt;/b&gt;" style="swimlane;childLayout=stackLayout;horizontal=1;startSize=50;horizontalStack=0;rounded=1;fontSize=14;fontStyle=0;strokeWidth=2;resizeParent=0;resizeLast=1;shadow=0;dashed=0;align=center;arcSize=4;whiteSpace=wrap;html=1;fillColor=#76608a;fontColor=#ffffff;strokeColor=#432D57;" vertex="1" parent="1">
          <mxGeometry x="310" y="550" width="160" height="100" as="geometry" />
        </mxCell>
        <mxCell id="3ym9XBCRjFFnZ731LeBo-17" value="+Review Management&lt;br&gt;+Rating System" style="align=left;strokeColor=none;fillColor=none;spacingLeft=4;spacingRight=4;fontSize=12;verticalAlign=top;resizable=0;rotatable=0;part=1;html=1;whiteSpace=wrap;" vertex="1" parent="3ym9XBCRjFFnZ731LeBo-16">
          <mxGeometry y="50" width="160" height="50" as="geometry" />
        </mxCell>
        <mxCell id="3ym9XBCRjFFnZ731LeBo-22" style="rounded=0;orthogonalLoop=1;jettySize=auto;html=1;entryX=0.559;entryY=0.034;entryDx=0;entryDy=0;entryPerimeter=0;shape=link;" edge="1" parent="1" source="3ym9XBCRjFFnZ731LeBo-5" target="3ym9XBCRjFFnZ731LeBo-3">
          <mxGeometry relative="1" as="geometry" />
        </mxCell>
        <mxCell id="3ym9XBCRjFFnZ731LeBo-25" style="rounded=0;orthogonalLoop=1;jettySize=auto;html=1;exitX=0;exitY=0;exitDx=0;exitDy=0;entryX=1;entryY=1;entryDx=0;entryDy=0;shape=link;" edge="1" parent="1" source="3ym9XBCRjFFnZ731LeBo-15" target="3ym9XBCRjFFnZ731LeBo-3">
          <mxGeometry relative="1" as="geometry" />
        </mxCell>
        <mxCell id="3ym9XBCRjFFnZ731LeBo-27" style="rounded=0;orthogonalLoop=1;jettySize=auto;html=1;exitX=0.75;exitY=0;exitDx=0;exitDy=0;entryX=0.011;entryY=0.885;entryDx=0;entryDy=0;entryPerimeter=0;shape=link;" edge="1" parent="1" source="3ym9XBCRjFFnZ731LeBo-6" target="3ym9XBCRjFFnZ731LeBo-3">
          <mxGeometry relative="1" as="geometry" />
        </mxCell>
        <mxCell id="3ym9XBCRjFFnZ731LeBo-28" style="rounded=0;orthogonalLoop=1;jettySize=auto;html=1;exitX=1;exitY=0.5;exitDx=0;exitDy=0;entryX=0;entryY=0.5;entryDx=0;entryDy=0;shape=link;" edge="1" parent="1" source="3ym9XBCRjFFnZ731LeBo-13" target="3ym9XBCRjFFnZ731LeBo-3">
          <mxGeometry relative="1" as="geometry" />
        </mxCell>
        <mxCell id="3ym9XBCRjFFnZ731LeBo-29" style="rounded=0;orthogonalLoop=1;jettySize=auto;html=1;exitX=0.75;exitY=1;exitDx=0;exitDy=0;entryX=0;entryY=0;entryDx=0;entryDy=0;shape=link;" edge="1" parent="1" source="3ym9XBCRjFFnZ731LeBo-2" target="3ym9XBCRjFFnZ731LeBo-3">
          <mxGeometry relative="1" as="geometry" />
        </mxCell>
      </root>
    </mxGraphModel>
  </diagram>
</mxfile>
